# xmcd CD database file
#
# Track frame offsets:
#	150
#	8720
#	35429
#	59865
#	62371
#	85745
#	101194
#	126220
#	156503
#	179344
#	196481
#	216696
#	244358
#	267924
#
# Disc length: 3690 seconds
#
# Revision: 0
# Processed by: cddbd v1.4PL0 Copyright (c) Steve Scherf et al.
# Submitted via: CDex 1.50
#
DISCID=d50e680e
DTITLE=Concord - The Time, the Season
DYEAR=1900
DGENRE=Jazz
TTITLE0=Peace on the wind (the opening)
TTITLE1=U make me fly
TTITLE2=Hola (the hello song)
TTITLE3=Vuka Uzenzele (hint hint)
TTITLE4=Calypsoweto
TTITLE5=Uhamb'ubhekephi
TTITLE6=Ngizw'ingoma
TTITLE7=No seed, no life
TTITLE8=Canciones de Amor
TTITLE9=Vuka Uzenzele (don't wait for tomorrow)
TTITLE10=Sittin' on top of the world
TTITLE11=Africa (ithemba lethu)
TTITLE12=Let the walls fall down
TTITLE13=Peace on the wind (the closure)
EXTD=
EXTT0=
EXTT1=
EXTT2=
EXTT3=
EXTT4=
EXTT5=
EXTT6=
EXTT7=
EXTT8=
EXTT9=
EXTT10=
EXTT11=
EXTT12=
EXTT13=
PLAYORDER=
